<?xml version="1.0" encoding="UTF-8" standalone="no"?>
<!DOCTYPE svg PUBLIC "-//W3C//DTD SVG 1.1//EN"
 "http://www.w3.org/Graphics/SVG/1.1/DTD/svg11.dtd">
<!-- Generated by graphviz version 2.42.4 (0)
 -->
<!-- Title: classes Pages: 1 -->
<svg width="3633pt" height="682pt"
 viewBox="0.00 0.00 3633.00 681.80" xmlns="http://www.w3.org/2000/svg" xmlns:xlink="http://www.w3.org/1999/xlink">
<g id="graph0" class="graph" transform="scale(1 1) rotate(0) translate(4 677.8)">
<title>classes</title>
<polygon fill="white" stroke="transparent" points="-4,4 -4,-677.8 3629,-677.8 3629,4 -4,4"/>
<!-- kAlgoQ.kAlgorithm_QMethod -->
<g id="node1" class="node">
<title>kAlgoQ.kAlgorithm_QMethod</title>
<polygon fill="none" stroke="black" points="1154,-68 1154,-197 1349,-197 1349,-68 1154,-68"/>
<text text-anchor="start" x="1175" y="-181.8" font-family="Times,serif" font-size="14.00">kAlgorithm_QMethod</text>
<polyline fill="none" stroke="black" points="1154,-174 1349,-174 "/>
<text text-anchor="start" x="1203" y="-158.8" font-family="Times,serif" font-size="14.00">K : NoneType</text>
<text text-anchor="start" x="1203" y="-143.8" font-family="Times,serif" font-size="14.00">Ts : int</text>
<text text-anchor="start" x="1203" y="-128.8" font-family="Times,serif" font-size="14.00">q_s2m</text>
<polyline fill="none" stroke="black" points="1154,-121 1349,-121 "/>
<text text-anchor="start" x="1162" y="-105.8" font-family="Times,serif" font-size="14.00">__getitem__(idx)</text>
<text text-anchor="start" x="1162" y="-90.8" font-family="Times,serif" font-size="14.00">__init__(Ts)</text>
<text text-anchor="start" x="1162" y="-75.8" font-family="Times,serif" font-size="14.00">update(t, wim_m, wim_s)</text>
</g>
<!-- kContracts.kIF_Algorithm -->
<g id="node14" class="node">
<title>kContracts.kIF_Algorithm</title>
<polygon fill="none" stroke="black" points="935.5,-361.5 935.5,-432.3 1053.5,-432.3 1053.5,-361.5 935.5,-361.5"/>
<text text-anchor="start" x="943.5" y="-417.1" font-family="Times,serif" font-size="14.00">kIF_Algorithm</text>
<polyline fill="none" stroke="black" points="935.5,-409.3 1053.5,-409.3 "/>
<polyline fill="none" stroke="black" points="935.5,-384.5 1053.5,-384.5 "/>
<text text-anchor="start" x="964" y="-370.3" font-family="Times,serif" font-style="italic" font-size="14.00">update</text>
<text text-anchor="start" x="1014" y="-370.3" font-family="Times,serif" font-size="14.00">()</text>
</g>
<!-- kAlgoQ.kAlgorithm_QMethod&#45;&gt;kContracts.kIF_Algorithm -->
<g id="edge11" class="edge">
<title>kAlgoQ.kAlgorithm_QMethod&#45;&gt;kContracts.kIF_Algorithm</title>
<path fill="none" stroke="black" d="M1203.24,-197.23C1185.54,-219.38 1164.85,-243.94 1144.5,-265 1113.53,-297.06 1075.69,-330.04 1045.77,-354.88"/>
<polygon fill="none" stroke="black" points="1043.43,-352.27 1037.94,-361.33 1047.88,-357.67 1043.43,-352.27"/>
</g>
<!-- kLogs.kLogEig -->
<g id="node20" class="node">
<title>kLogs.kLogEig</title>
<polygon fill="none" stroke="black" points="1186,-339.9 1186,-453.9 1317,-453.9 1317,-339.9 1186,-339.9"/>
<text text-anchor="start" x="1222" y="-438.7" font-family="Times,serif" font-size="14.00">kLogEig</text>
<polyline fill="none" stroke="black" points="1186,-430.9 1317,-430.9 "/>
<text text-anchor="start" x="1198" y="-415.7" font-family="Times,serif" font-size="14.00">lst_q_s2m : list</text>
<text text-anchor="start" x="1198" y="-400.7" font-family="Times,serif" font-size="14.00">lst_time : list</text>
<polyline fill="none" stroke="black" points="1186,-392.9 1317,-392.9 "/>
<text text-anchor="start" x="1194" y="-377.7" font-family="Times,serif" font-size="14.00">__getitem__(idx)</text>
<text text-anchor="start" x="1194" y="-362.7" font-family="Times,serif" font-size="14.00">__init__()</text>
<text text-anchor="start" x="1194" y="-347.7" font-family="Times,serif" font-size="14.00">append(t)</text>
</g>
<!-- kAlgoQ.kAlgorithm_QMethod&#45;&gt;kLogs.kLogEig -->
<g id="edge12" class="edge">
<title>kAlgoQ.kAlgorithm_QMethod&#45;&gt;kLogs.kLogEig</title>
<path fill="none" stroke="black" d="M1251.5,-197.02C1251.5,-237.15 1251.5,-288.91 1251.5,-329.57"/>
<polygon fill="none" stroke="black" points="1248,-329.65 1251.5,-339.65 1255,-329.65 1248,-329.65"/>
</g>
<!-- kAlgo9th.kAlgorithm_bufferSamples -->
<g id="node2" class="node">
<title>kAlgo9th.kAlgorithm_bufferSamples</title>
<polygon fill="none" stroke="black" points="0,-0.5 0,-264.5 279,-264.5 279,-0.5 0,-0.5"/>
<text text-anchor="start" x="44" y="-249.3" font-family="Times,serif" font-size="14.00">kAlgorithm_bufferSamples</text>
<polyline fill="none" stroke="black" points="0,-241.5 279,-241.5 "/>
<text text-anchor="start" x="81.5" y="-226.3" font-family="Times,serif" font-size="14.00">Ts : int</text>
<text text-anchor="start" x="81.5" y="-211.3" font-family="Times,serif" font-size="14.00">bufSize : int</text>
<text text-anchor="start" x="81.5" y="-196.3" font-family="Times,serif" font-size="14.00">dwim_m : dict</text>
<text text-anchor="start" x="81.5" y="-181.3" font-family="Times,serif" font-size="14.00">efol : kEfol</text>
<text text-anchor="start" x="81.5" y="-166.3" font-family="Times,serif" font-size="14.00">la : kArrayNav</text>
<text text-anchor="start" x="81.5" y="-151.3" font-family="Times,serif" font-size="14.00">lst_buffer : list</text>
<text text-anchor="start" x="81.5" y="-136.3" font-family="Times,serif" font-size="14.00">lst_time : list</text>
<text text-anchor="start" x="81.5" y="-121.3" font-family="Times,serif" font-size="14.00">q_s2m : ndarray</text>
<polyline fill="none" stroke="black" points="0,-113.5 279,-113.5 "/>
<text text-anchor="start" x="8" y="-98.3" font-family="Times,serif" font-size="14.00">__init__(Ts, q0, la0, bufSize)</text>
<text text-anchor="start" x="8" y="-83.3" font-family="Times,serif" font-size="14.00">_deadzone(err_filt)</text>
<text text-anchor="start" x="8" y="-68.3" font-family="Times,serif" font-size="14.00">_deadzone_beta1(err)</text>
<text text-anchor="start" x="8" y="-53.3" font-family="Times,serif" font-size="14.00">_deadzone_beta2(err)</text>
<text text-anchor="start" x="8" y="-38.3" font-family="Times,serif" font-size="14.00">_deadzone_beta3(err)</text>
<text text-anchor="start" x="8" y="-23.3" font-family="Times,serif" font-size="14.00">_update_from_buffer(t)</text>
<text text-anchor="start" x="8" y="-8.3" font-family="Times,serif" font-size="14.00">update(t, wim_m, wim_s, fm_m, fs_s)</text>
</g>
<!-- kAlgo89common.kAlgorithm_comboHessian -->
<g id="node4" class="node">
<title>kAlgo89common.kAlgorithm_comboHessian</title>
<polygon fill="none" stroke="black" points="112.5,-354 112.5,-439.8 422.5,-439.8 422.5,-354 112.5,-354"/>
<text text-anchor="start" x="172.5" y="-424.6" font-family="Times,serif" font-size="14.00">kAlgorithm_comboHessian</text>
<polyline fill="none" stroke="black" points="112.5,-416.8 422.5,-416.8 "/>
<polyline fill="none" stroke="black" points="112.5,-392 422.5,-392 "/>
<text text-anchor="start" x="120.5" y="-376.8" font-family="Times,serif" font-size="14.00">__getitem__(idx)</text>
<text text-anchor="start" x="120.5" y="-361.8" font-family="Times,serif" font-size="14.00">_hessian(wim_m, wim_s, fm_m, fs_s, OM)</text>
</g>
<!-- kAlgo9th.kAlgorithm_bufferSamples&#45;&gt;kAlgo89common.kAlgorithm_comboHessian -->
<g id="edge8" class="edge">
<title>kAlgo9th.kAlgorithm_bufferSamples&#45;&gt;kAlgo89common.kAlgorithm_comboHessian</title>
<path fill="none" stroke="black" d="M203.5,-264.7C217.34,-293.08 231.19,-321.46 242.44,-344.52"/>
<polygon fill="none" stroke="black" points="239.4,-346.29 246.93,-353.74 245.7,-343.22 239.4,-346.29"/>
</g>
<!-- kAlgo9th.kAlgorithm_bufferSamples&#45;&gt;kContracts.kIF_Algorithm -->
<g id="edge9" class="edge">
<title>kAlgo9th.kAlgorithm_bufferSamples&#45;&gt;kContracts.kIF_Algorithm</title>
<path fill="none" stroke="black" d="M279.45,-261.44C282.12,-262.7 284.8,-263.88 287.5,-265 415.65,-317.99 785.75,-240.43 910.5,-301 933.88,-312.35 953.57,-333.43 967.99,-352.85"/>
<polygon fill="none" stroke="black" points="965.19,-354.94 973.85,-361.03 970.88,-350.86 965.19,-354.94"/>
</g>
<!-- kLogs.kLogEfol -->
<g id="node19" class="node">
<title>kLogs.kLogEfol</title>
<polygon fill="none" stroke="black" points="567.5,-302.4 567.5,-491.4 901.5,-491.4 901.5,-302.4 567.5,-302.4"/>
<text text-anchor="start" x="702.5" y="-476.2" font-family="Times,serif" font-size="14.00">kLogEfol</text>
<polyline fill="none" stroke="black" points="567.5,-468.4 901.5,-468.4 "/>
<text text-anchor="start" x="670.5" y="-453.2" font-family="Times,serif" font-size="14.00">lst_alpha : list</text>
<text text-anchor="start" x="670.5" y="-438.2" font-family="Times,serif" font-size="14.00">lst_beta : list</text>
<text text-anchor="start" x="670.5" y="-423.2" font-family="Times,serif" font-size="14.00">lst_dtheta : list</text>
<text text-anchor="start" x="670.5" y="-408.2" font-family="Times,serif" font-size="14.00">lst_err_filt : list</text>
<text text-anchor="start" x="670.5" y="-393.2" font-family="Times,serif" font-size="14.00">lst_err_unfilt : list</text>
<text text-anchor="start" x="670.5" y="-378.2" font-family="Times,serif" font-size="14.00">lst_theta : list</text>
<text text-anchor="start" x="670.5" y="-363.2" font-family="Times,serif" font-size="14.00">lst_time : list</text>
<polyline fill="none" stroke="black" points="567.5,-355.4 901.5,-355.4 "/>
<text text-anchor="start" x="575.5" y="-340.2" font-family="Times,serif" font-size="14.00">__getitem__(idx)</text>
<text text-anchor="start" x="575.5" y="-325.2" font-family="Times,serif" font-size="14.00">__init__()</text>
<text text-anchor="start" x="575.5" y="-310.2" font-family="Times,serif" font-size="14.00">append(t, alpha, beta, err_filt, theta, dtheta)</text>
</g>
<!-- kAlgo9th.kAlgorithm_bufferSamples&#45;&gt;kLogs.kLogEfol -->
<g id="edge10" class="edge">
<title>kAlgo9th.kAlgorithm_bufferSamples&#45;&gt;kLogs.kLogEfol</title>
<path fill="none" stroke="black" d="M279.32,-260.49C282.04,-262.05 284.76,-263.56 287.5,-265 345.84,-295.8 368,-283.13 431.5,-301 472.48,-312.53 516.32,-325.74 557.55,-338.57"/>
<polygon fill="none" stroke="black" points="556.55,-341.92 567.14,-341.56 558.63,-335.24 556.55,-341.92"/>
</g>
<!-- kAlgo8th.kAlgorithm_combo -->
<g id="node3" class="node">
<title>kAlgo8th.kAlgorithm_combo</title>
<polygon fill="none" stroke="black" points="297,-23 297,-242 584,-242 584,-23 297,-23"/>
<text text-anchor="start" x="374" y="-226.8" font-family="Times,serif" font-size="14.00">kAlgorithm_combo</text>
<polyline fill="none" stroke="black" points="297,-219 584,-219 "/>
<text text-anchor="start" x="389" y="-203.8" font-family="Times,serif" font-size="14.00">Ts : int</text>
<text text-anchor="start" x="389" y="-188.8" font-family="Times,serif" font-size="14.00">dwim_m : dict</text>
<text text-anchor="start" x="389" y="-173.8" font-family="Times,serif" font-size="14.00">efol : kEfol</text>
<text text-anchor="start" x="389" y="-158.8" font-family="Times,serif" font-size="14.00">la : kArrayNav</text>
<text text-anchor="start" x="389" y="-143.8" font-family="Times,serif" font-size="14.00">q_s2m</text>
<polyline fill="none" stroke="black" points="297,-136 584,-136 "/>
<text text-anchor="start" x="305" y="-120.8" font-family="Times,serif" font-size="14.00">__init__(Ts, q0, la0)</text>
<text text-anchor="start" x="305" y="-105.8" font-family="Times,serif" font-size="14.00">_beta(wim_m, wim_s, fm_m, fs_s, Om)</text>
<text text-anchor="start" x="305" y="-90.8" font-family="Times,serif" font-size="14.00">_deadzone(err_filt)</text>
<text text-anchor="start" x="305" y="-75.8" font-family="Times,serif" font-size="14.00">_deadzone_beta1(err)</text>
<text text-anchor="start" x="305" y="-60.8" font-family="Times,serif" font-size="14.00">_deadzone_beta2(err)</text>
<text text-anchor="start" x="305" y="-45.8" font-family="Times,serif" font-size="14.00">_deadzone_beta3(err)</text>
<text text-anchor="start" x="305" y="-30.8" font-family="Times,serif" font-size="14.00">update(t, wim_m, wim_s, fm_m, fs_s)</text>
</g>
<!-- kAlgo8th.kAlgorithm_combo&#45;&gt;kAlgo89common.kAlgorithm_comboHessian -->
<g id="edge5" class="edge">
<title>kAlgo8th.kAlgorithm_combo&#45;&gt;kAlgo89common.kAlgorithm_comboHessian</title>
<path fill="none" stroke="black" d="M368.89,-242.12C345.28,-277.92 320.15,-316.04 300.82,-345.37"/>
<polygon fill="none" stroke="black" points="297.85,-343.51 295.27,-353.78 303.69,-347.36 297.85,-343.51"/>
</g>
<!-- kAlgo8th.kAlgorithm_combo&#45;&gt;kContracts.kIF_Algorithm -->
<g id="edge6" class="edge">
<title>kAlgo8th.kAlgorithm_combo&#45;&gt;kContracts.kIF_Algorithm</title>
<path fill="none" stroke="black" d="M551.64,-242C564.72,-250.91 578.44,-258.84 592.5,-265 722.78,-322.08 784.3,-235.38 910.5,-301 933.29,-312.85 952.76,-333.62 967.2,-352.72"/>
<polygon fill="none" stroke="black" points="964.55,-355.03 973.27,-361.05 970.21,-350.91 964.55,-355.03"/>
</g>
<!-- kAlgo8th.kAlgorithm_combo&#45;&gt;kLogs.kLogEfol -->
<g id="edge7" class="edge">
<title>kAlgo8th.kAlgorithm_combo&#45;&gt;kLogs.kLogEfol</title>
<path fill="none" stroke="black" d="M562.2,-242.12C581.87,-259.67 602.15,-277.78 621.6,-295.13"/>
<polygon fill="none" stroke="black" points="619.5,-297.95 629.29,-302 624.16,-292.73 619.5,-297.95"/>
</g>
<!-- kAlgo4th.kAlgorithm_efol_AplusBminus_q2 -->
<g id="node5" class="node">
<title>kAlgo4th.kAlgorithm_efol_AplusBminus_q2</title>
<polygon fill="none" stroke="black" points="602,-60.5 602,-204.5 867,-204.5 867,-60.5 602,-60.5"/>
<text text-anchor="start" x="615.5" y="-189.3" font-family="Times,serif" font-size="14.00">kAlgorithm_efol_AplusBminus_q2</text>
<polyline fill="none" stroke="black" points="602,-181.5 867,-181.5 "/>
<text text-anchor="start" x="666.5" y="-166.3" font-family="Times,serif" font-size="14.00">Ts : int</text>
<text text-anchor="start" x="666.5" y="-151.3" font-family="Times,serif" font-size="14.00">efol : kEfol</text>
<text text-anchor="start" x="666.5" y="-136.3" font-family="Times,serif" font-size="14.00">q_s2m : kArrayNav</text>
<polyline fill="none" stroke="black" points="602,-128.5 867,-128.5 "/>
<text text-anchor="start" x="610" y="-113.3" font-family="Times,serif" font-size="14.00">__getitem__(idx)</text>
<text text-anchor="start" x="610" y="-98.3" font-family="Times,serif" font-size="14.00">__init__(Ts, q0)</text>
<text text-anchor="start" x="610" y="-83.3" font-family="Times,serif" font-size="14.00">_hessian(wib_master, wib_slave, q)</text>
<text text-anchor="start" x="610" y="-68.3" font-family="Times,serif" font-size="14.00">update(t, wib_master, wib_slave)</text>
</g>
<!-- kAlgo4th.kAlgorithm_efol_AplusBminus_q2&#45;&gt;kContracts.kIF_Algorithm -->
<g id="edge3" class="edge">
<title>kAlgo4th.kAlgorithm_efol_AplusBminus_q2&#45;&gt;kContracts.kIF_Algorithm</title>
<path fill="none" stroke="black" d="M812.12,-204.66C843.28,-233.92 879.17,-268.51 910.5,-301 926.65,-317.74 943.78,-336.84 958.33,-353.49"/>
<polygon fill="none" stroke="black" points="956.05,-356.2 965.25,-361.44 961.33,-351.6 956.05,-356.2"/>
</g>
<!-- kAlgo4th.kAlgorithm_efol_AplusBminus_q2&#45;&gt;kLogs.kLogEfol -->
<g id="edge4" class="edge">
<title>kAlgo4th.kAlgorithm_efol_AplusBminus_q2&#45;&gt;kLogs.kLogEfol</title>
<path fill="none" stroke="black" d="M734.5,-204.51C734.5,-231.39 734.5,-262.58 734.5,-291.88"/>
<polygon fill="none" stroke="black" points="731,-292.15 734.5,-302.15 738,-292.15 731,-292.15"/>
</g>
<!-- kAlgo2nd.kAlgorithm_efol_Cwib_q2 -->
<g id="node6" class="node">
<title>kAlgo2nd.kAlgorithm_efol_Cwib_q2</title>
<polygon fill="none" stroke="black" points="885,-60.5 885,-204.5 1136,-204.5 1136,-60.5 885,-60.5"/>
<text text-anchor="start" x="920" y="-189.3" font-family="Times,serif" font-size="14.00">kAlgorithm_efol_Cwib_q2</text>
<polyline fill="none" stroke="black" points="885,-181.5 1136,-181.5 "/>
<text text-anchor="start" x="942.5" y="-166.3" font-family="Times,serif" font-size="14.00">Ts : int</text>
<text text-anchor="start" x="942.5" y="-151.3" font-family="Times,serif" font-size="14.00">efol : kEfol</text>
<text text-anchor="start" x="942.5" y="-136.3" font-family="Times,serif" font-size="14.00">q_s2m : kArrayNav</text>
<polyline fill="none" stroke="black" points="885,-128.5 1136,-128.5 "/>
<text text-anchor="start" x="893" y="-113.3" font-family="Times,serif" font-size="14.00">__getitem__(idx)</text>
<text text-anchor="start" x="893" y="-98.3" font-family="Times,serif" font-size="14.00">__init__(Ts, q0)</text>
<text text-anchor="start" x="893" y="-83.3" font-family="Times,serif" font-size="14.00">_hessian(q, beta)</text>
<text text-anchor="start" x="893" y="-68.3" font-family="Times,serif" font-size="14.00">update(t, wib_master, wib_slave)</text>
</g>
<!-- kAlgo2nd.kAlgorithm_efol_Cwib_q2&#45;&gt;kContracts.kIF_Algorithm -->
<g id="edge1" class="edge">
<title>kAlgo2nd.kAlgorithm_efol_Cwib_q2&#45;&gt;kContracts.kIF_Algorithm</title>
<path fill="none" stroke="black" d="M1006.17,-204.51C1003.32,-251.28 999.67,-311.09 997.22,-351.29"/>
<polygon fill="none" stroke="black" points="993.72,-351.13 996.61,-361.32 1000.71,-351.56 993.72,-351.13"/>
</g>
<!-- kAlgo2nd.kAlgorithm_efol_Cwib_q2&#45;&gt;kLogs.kLogEfol -->
<g id="edge2" class="edge">
<title>kAlgo2nd.kAlgorithm_efol_Cwib_q2&#45;&gt;kLogs.kLogEfol</title>
<path fill="none" stroke="black" d="M937.94,-204.8C917.82,-224.41 895.89,-245.61 875.5,-265 865.18,-274.82 854.38,-285 843.55,-295.15"/>
<polygon fill="none" stroke="black" points="840.96,-292.78 836.05,-302.17 845.74,-297.89 840.96,-292.78"/>
</g>
<!-- kAlgoRLS.kAlgorithm_rls_leverarm -->
<g id="node7" class="node">
<title>kAlgoRLS.kAlgorithm_rls_leverarm</title>
<polygon fill="none" stroke="black" points="1367.5,-60.5 1367.5,-204.5 1633.5,-204.5 1633.5,-60.5 1367.5,-60.5"/>
<text text-anchor="start" x="1412" y="-189.3" font-family="Times,serif" font-size="14.00">kAlgorithm_rls_leverarm</text>
<polyline fill="none" stroke="black" points="1367.5,-181.5 1633.5,-181.5 "/>
<text text-anchor="start" x="1405" y="-166.3" font-family="Times,serif" font-size="14.00">Ts : int</text>
<text text-anchor="start" x="1405" y="-151.3" font-family="Times,serif" font-size="14.00">dwim_m : dict</text>
<text text-anchor="start" x="1405" y="-136.3" font-family="Times,serif" font-size="14.00">la : kArrayNav</text>
<text text-anchor="start" x="1405" y="-121.3" font-family="Times,serif" font-size="14.00">rls : kForgettingFactorRLS</text>
<polyline fill="none" stroke="black" points="1367.5,-113.5 1633.5,-113.5 "/>
<text text-anchor="start" x="1375.5" y="-98.3" font-family="Times,serif" font-size="14.00">__getitem__(idx)</text>
<text text-anchor="start" x="1375.5" y="-83.3" font-family="Times,serif" font-size="14.00">__init__(Ts, la0)</text>
<text text-anchor="start" x="1375.5" y="-68.3" font-family="Times,serif" font-size="14.00">update(wim_m, fm_m, fs_s, q_s2m)</text>
</g>
<!-- kAlgoRLS.kAlgorithm_rls_leverarm&#45;&gt;kContracts.kIF_Algorithm -->
<g id="edge13" class="edge">
<title>kAlgoRLS.kAlgorithm_rls_leverarm&#45;&gt;kContracts.kIF_Algorithm</title>
<path fill="none" stroke="black" d="M1438,-204.84C1414.83,-227.25 1386.97,-250.03 1357.5,-265 1284.37,-302.14 1253.87,-273.76 1176.5,-301 1135.93,-315.28 1093.15,-337.2 1059.27,-356.37"/>
<polygon fill="none" stroke="black" points="1057.35,-353.43 1050.41,-361.44 1060.82,-359.51 1057.35,-353.43"/>
</g>
<!-- kLogs.kLogRls -->
<g id="node21" class="node">
<title>kLogs.kLogRls</title>
<polygon fill="none" stroke="black" points="1395,-332.4 1395,-461.4 1554,-461.4 1554,-332.4 1395,-332.4"/>
<text text-anchor="start" x="1445.5" y="-446.2" font-family="Times,serif" font-size="14.00">kLogRls</text>
<polyline fill="none" stroke="black" points="1395,-438.4 1554,-438.4 "/>
<text text-anchor="start" x="1424.5" y="-423.2" font-family="Times,serif" font-size="14.00">lst_alpha : list</text>
<text text-anchor="start" x="1424.5" y="-408.2" font-family="Times,serif" font-size="14.00">lst_beta : list</text>
<text text-anchor="start" x="1424.5" y="-393.2" font-family="Times,serif" font-size="14.00">lst_la : list</text>
<polyline fill="none" stroke="black" points="1395,-385.4 1554,-385.4 "/>
<text text-anchor="start" x="1403" y="-370.2" font-family="Times,serif" font-size="14.00">__getitem__(idx)</text>
<text text-anchor="start" x="1403" y="-355.2" font-family="Times,serif" font-size="14.00">__init__()</text>
<text text-anchor="start" x="1403" y="-340.2" font-family="Times,serif" font-size="14.00">append(alpha, beta)</text>
</g>
<!-- kAlgoRLS.kAlgorithm_rls_leverarm&#45;&gt;kLogs.kLogRls -->
<g id="edge14" class="edge">
<title>kAlgoRLS.kAlgorithm_rls_leverarm&#45;&gt;kLogs.kLogRls</title>
<path fill="none" stroke="black" d="M1493.46,-204.51C1489.86,-240.86 1485.48,-285.08 1481.84,-321.85"/>
<polygon fill="none" stroke="black" points="1478.33,-321.71 1480.83,-332.01 1485.3,-322.41 1478.33,-321.71"/>
</g>
<!-- kImu.kBodyGroundTruth -->
<g id="node8" class="node">
<title>kImu.kBodyGroundTruth</title>
<polygon fill="none" stroke="black" points="1606.5,-301.5 1606.5,-492.3 1760.5,-492.3 1760.5,-301.5 1606.5,-301.5"/>
<text text-anchor="start" x="1614.5" y="-477.1" font-family="Times,serif" font-size="14.00">kBodyGroundTruth</text>
<polyline fill="none" stroke="black" points="1606.5,-469.3 1760.5,-469.3 "/>
<polyline fill="none" stroke="black" points="1606.5,-444.5 1760.5,-444.5 "/>
<text text-anchor="start" x="1626.5" y="-429.3" font-family="Times,serif" font-size="14.00">__init__(file_gz)</text>
<text text-anchor="start" x="1626.5" y="-414.3" font-family="Times,serif" font-size="14.00">gen_euler()</text>
<text text-anchor="start" x="1626.5" y="-399.3" font-family="Times,serif" font-size="14.00">gen_llh()</text>
<text text-anchor="start" x="1626.5" y="-384.3" font-family="Times,serif" font-size="14.00">gen_vNED()</text>
<text text-anchor="start" x="1626.5" y="-369.3" font-family="Times,serif" font-size="14.00">get_debug(idx)</text>
<text text-anchor="start" x="1626.5" y="-354.3" font-family="Times,serif" font-size="14.00">get_euler(idx)</text>
<text text-anchor="start" x="1626.5" y="-339.3" font-family="Times,serif" font-size="14.00">get_llh(idx)</text>
<text text-anchor="start" x="1626.5" y="-324.3" font-family="Times,serif" font-size="14.00">get_vNED(idx)</text>
<text text-anchor="start" x="1626.5" y="-309.3" font-family="Times,serif" font-size="14.00">get_vNEDp(idx)</text>
</g>
<!-- kImu.kFileLoading -->
<g id="node13" class="node">
<title>kImu.kFileLoading</title>
<polygon fill="none" stroke="black" points="1644.5,-529.3 1644.5,-673.3 1878.5,-673.3 1878.5,-529.3 1644.5,-529.3"/>
<text text-anchor="start" x="1715" y="-658.1" font-family="Times,serif" font-size="14.00">kFileLoading</text>
<polyline fill="none" stroke="black" points="1644.5,-650.3 1878.5,-650.3 "/>
<text text-anchor="start" x="1652.5" y="-635.1" font-family="Times,serif" font-size="14.00">T</text>
<text text-anchor="start" x="1652.5" y="-620.1" font-family="Times,serif" font-size="14.00">Ts : ndarray</text>
<text text-anchor="start" x="1652.5" y="-605.1" font-family="Times,serif" font-size="14.00">df : NoneType, TextFileReader</text>
<polyline fill="none" stroke="black" points="1644.5,-597.3 1878.5,-597.3 "/>
<text text-anchor="start" x="1689" y="-582.1" font-family="Times,serif" font-size="14.00">__init__(file_gz)</text>
<text text-anchor="start" x="1689" y="-567.1" font-family="Times,serif" font-size="14.00">__len__()</text>
<text text-anchor="start" x="1689" y="-552.1" font-family="Times,serif" font-size="14.00">get_sampling_time()</text>
<text text-anchor="start" x="1689" y="-537.1" font-family="Times,serif" font-size="14.00">get_time_array()</text>
</g>
<!-- kImu.kBodyGroundTruth&#45;&gt;kImu.kFileLoading -->
<g id="edge16" class="edge">
<title>kImu.kBodyGroundTruth&#45;&gt;kImu.kFileLoading</title>
<path fill="none" stroke="black" d="M1719.99,-492.58C1723.48,-501.65 1727,-510.78 1730.44,-519.7"/>
<polygon fill="none" stroke="black" points="1727.27,-521.2 1734.13,-529.27 1733.8,-518.68 1727.27,-521.2"/>
</g>
<!-- kDbSassari.kDbSassari -->
<g id="node9" class="node">
<title>kDbSassari.kDbSassari</title>
<polygon fill="none" stroke="black" points="1667.5,-0.5 1667.5,-264.5 1963.5,-264.5 1963.5,-0.5 1667.5,-0.5"/>
<text text-anchor="start" x="1774.5" y="-249.3" font-family="Times,serif" font-size="14.00">kDbSassari</text>
<polyline fill="none" stroke="black" points="1667.5,-241.5 1963.5,-241.5 "/>
<text text-anchor="start" x="1687.5" y="-226.3" font-family="Times,serif" font-size="14.00">Fs : int</text>
<text text-anchor="start" x="1687.5" y="-211.3" font-family="Times,serif" font-size="14.00">T</text>
<text text-anchor="start" x="1687.5" y="-196.3" font-family="Times,serif" font-size="14.00">Ts : float</text>
<text text-anchor="start" x="1687.5" y="-181.3" font-family="Times,serif" font-size="14.00">cfg</text>
<text text-anchor="start" x="1687.5" y="-166.3" font-family="Times,serif" font-size="14.00">df : NoneType</text>
<text text-anchor="start" x="1687.5" y="-151.3" font-family="Times,serif" font-size="14.00">labels_acc : list</text>
<text text-anchor="start" x="1687.5" y="-136.3" font-family="Times,serif" font-size="14.00">labels_wib : list</text>
<text text-anchor="start" x="1687.5" y="-121.3" font-family="Times,serif" font-size="14.00">semaphore_convertion : Semaphore</text>
<text text-anchor="start" x="1687.5" y="-106.3" font-family="Times,serif" font-size="14.00">tmax : int</text>
<text text-anchor="start" x="1687.5" y="-91.3" font-family="Times,serif" font-size="14.00">tmin : int</text>
<polyline fill="none" stroke="black" points="1667.5,-83.5 1963.5,-83.5 "/>
<text text-anchor="start" x="1675.5" y="-68.3" font-family="Times,serif" font-size="14.00">__getitem__(idx)</text>
<text text-anchor="start" x="1675.5" y="-53.3" font-family="Times,serif" font-size="14.00">__init__(localconfig)</text>
<text text-anchor="start" x="1675.5" y="-38.3" font-family="Times,serif" font-size="14.00">_convert_or_reload(path, sensor_name)</text>
<text text-anchor="start" x="1675.5" y="-23.3" font-family="Times,serif" font-size="14.00">_rotate_row(row, q)</text>
<text text-anchor="start" x="1675.5" y="-8.3" font-family="Times,serif" font-size="14.00">plot(ax, tag)</text>
</g>
<!-- kImu.kImu -->
<g id="node16" class="node">
<title>kImu.kImu</title>
<polygon fill="none" stroke="black" points="1778.5,-331.5 1778.5,-462.3 1902.5,-462.3 1902.5,-331.5 1778.5,-331.5"/>
<text text-anchor="start" x="1822" y="-447.1" font-family="Times,serif" font-size="14.00">kImu</text>
<polyline fill="none" stroke="black" points="1778.5,-439.3 1902.5,-439.3 "/>
<polyline fill="none" stroke="black" points="1778.5,-414.5 1902.5,-414.5 "/>
<text text-anchor="start" x="1786.5" y="-399.3" font-family="Times,serif" font-size="14.00">__init__(file_gz)</text>
<text text-anchor="start" x="1786.5" y="-384.3" font-family="Times,serif" font-size="14.00">gen_acc()</text>
<text text-anchor="start" x="1786.5" y="-369.3" font-family="Times,serif" font-size="14.00">gen_wib()</text>
<text text-anchor="start" x="1786.5" y="-354.3" font-family="Times,serif" font-size="14.00">get_acc(idx)</text>
<text text-anchor="start" x="1786.5" y="-339.3" font-family="Times,serif" font-size="14.00">get_wib(idx)</text>
</g>
<!-- kDbSassari.kDbSassari&#45;&gt;kImu.kImu -->
<g id="edge15" class="edge">
<title>kDbSassari.kDbSassari&#45;&gt;kImu.kImu</title>
<path fill="none" stroke="black" d="M1828,-264.7C1829.85,-284.09 1831.69,-303.47 1833.38,-321.16"/>
<polygon fill="none" stroke="black" points="1829.92,-321.75 1834.35,-331.37 1836.89,-321.09 1829.92,-321.75"/>
</g>
<!-- kLocalConfig.kEnumAcquisitionMode -->
<g id="node10" class="node">
<title>kLocalConfig.kEnumAcquisitionMode</title>
<polygon fill="none" stroke="black" points="2311.5,-98 2311.5,-167 2497.5,-167 2497.5,-98 2311.5,-98"/>
<text text-anchor="start" x="2319.5" y="-151.8" font-family="Times,serif" font-size="14.00">kEnumAcquisitionMode</text>
<polyline fill="none" stroke="black" points="2311.5,-144 2497.5,-144 "/>
<text text-anchor="start" x="2384.5" y="-128.8" font-family="Times,serif" font-size="14.00">name</text>
<polyline fill="none" stroke="black" points="2311.5,-121 2497.5,-121 "/>
<text text-anchor="start" x="2402" y="-105.8" font-family="Times,serif" font-size="14.00"> </text>
</g>
<!-- kLocalConfig.kEnumDataSource -->
<g id="node11" class="node">
<title>kLocalConfig.kEnumDataSource</title>
<polygon fill="none" stroke="black" points="2515.5,-98 2515.5,-167 2665.5,-167 2665.5,-98 2515.5,-98"/>
<text text-anchor="start" x="2523.5" y="-151.8" font-family="Times,serif" font-size="14.00">kEnumDataSource</text>
<polyline fill="none" stroke="black" points="2515.5,-144 2665.5,-144 "/>
<text text-anchor="start" x="2570.5" y="-128.8" font-family="Times,serif" font-size="14.00">name</text>
<polyline fill="none" stroke="black" points="2515.5,-121 2665.5,-121 "/>
<text text-anchor="start" x="2588" y="-105.8" font-family="Times,serif" font-size="14.00"> </text>
</g>
<!-- kLocalConfig.kEnumSensorName -->
<g id="node12" class="node">
<title>kLocalConfig.kEnumSensorName</title>
<polygon fill="none" stroke="black" points="2683.5,-98 2683.5,-167 2841.5,-167 2841.5,-98 2683.5,-98"/>
<text text-anchor="start" x="2691.5" y="-151.8" font-family="Times,serif" font-size="14.00">kEnumSensorName</text>
<polyline fill="none" stroke="black" points="2683.5,-144 2841.5,-144 "/>
<text text-anchor="start" x="2742.5" y="-128.8" font-family="Times,serif" font-size="14.00">name</text>
<polyline fill="none" stroke="black" points="2683.5,-121 2841.5,-121 "/>
<text text-anchor="start" x="2760" y="-105.8" font-family="Times,serif" font-size="14.00"> </text>
</g>
<!-- kContracts.kIF_Log -->
<g id="node15" class="node">
<title>kContracts.kIF_Log</title>
<polygon fill="none" stroke="black" points="1185.5,-552.4 1185.5,-650.2 1317.5,-650.2 1317.5,-552.4 1185.5,-552.4"/>
<text text-anchor="start" x="1223" y="-635" font-family="Times,serif" font-size="14.00">kIF_Log</text>
<polyline fill="none" stroke="black" points="1185.5,-627.2 1317.5,-627.2 "/>
<polyline fill="none" stroke="black" points="1185.5,-602.4 1317.5,-602.4 "/>
<text text-anchor="start" x="1193.5" y="-588.2" font-family="Times,serif" font-style="italic" font-size="14.00">__getitem__</text>
<text text-anchor="start" x="1276.5" y="-588.2" font-family="Times,serif" font-size="14.00">(idx)</text>
<text text-anchor="start" x="1193.5" y="-574.2" font-family="Times,serif" font-style="italic" font-size="14.00">__init__</text>
<text text-anchor="start" x="1245.5" y="-574.2" font-family="Times,serif" font-size="14.00">()</text>
<text text-anchor="start" x="1193.5" y="-560.2" font-family="Times,serif" font-style="italic" font-size="14.00">append</text>
<text text-anchor="start" x="1246.5" y="-560.2" font-family="Times,serif" font-size="14.00">()</text>
</g>
<!-- kImu.kImu&#45;&gt;kImu.kFileLoading -->
<g id="edge17" class="edge">
<title>kImu.kImu&#45;&gt;kImu.kFileLoading</title>
<path fill="none" stroke="black" d="M1815.29,-462.5C1808.22,-480.61 1800.44,-500.53 1793.05,-519.46"/>
<polygon fill="none" stroke="black" points="1789.72,-518.36 1789.35,-528.95 1796.25,-520.91 1789.72,-518.36"/>
</g>
<!-- kImu.kImuIntegration -->
<g id="node17" class="node">
<title>kImu.kImuIntegration</title>
<polygon fill="none" stroke="black" points="1982,-45.5 1982,-219.5 2293,-219.5 2293,-45.5 1982,-45.5"/>
<text text-anchor="start" x="2079" y="-204.3" font-family="Times,serif" font-size="14.00">kImuIntegration</text>
<polyline fill="none" stroke="black" points="1982,-196.5 2293,-196.5 "/>
<text text-anchor="start" x="2064.5" y="-181.3" font-family="Times,serif" font-size="14.00">ddt : NoneType, dict</text>
<text text-anchor="start" x="2064.5" y="-166.3" font-family="Times,serif" font-size="14.00">debug : dict</text>
<text text-anchor="start" x="2064.5" y="-151.3" font-family="Times,serif" font-size="14.00">llh : kArrayNav</text>
<text text-anchor="start" x="2064.5" y="-136.3" font-family="Times,serif" font-size="14.00">q_n2b</text>
<text text-anchor="start" x="2064.5" y="-121.3" font-family="Times,serif" font-size="14.00">vNED</text>
<polyline fill="none" stroke="black" points="1982,-113.5 2293,-113.5 "/>
<text text-anchor="start" x="1990" y="-98.3" font-family="Times,serif" font-size="14.00">__init__(file_gz, euler0_n2b, v0_e_b, llh0)</text>
<text text-anchor="start" x="1990" y="-83.3" font-family="Times,serif" font-size="14.00">_calc_ddt(idx)</text>
<text text-anchor="start" x="1990" y="-68.3" font-family="Times,serif" font-size="14.00">_trapezoidal_integration(f_k_1, f_k, delta)</text>
<text text-anchor="start" x="1990" y="-53.3" font-family="Times,serif" font-size="14.00">update(gt, idx)</text>
</g>
<!-- kImu.kImuIntegration&#45;&gt;kImu.kImu -->
<g id="edge18" class="edge">
<title>kImu.kImuIntegration&#45;&gt;kImu.kImu</title>
<path fill="none" stroke="black" d="M2039.84,-219.78C1997.52,-257.17 1948.93,-300.1 1910.32,-334.21"/>
<polygon fill="none" stroke="black" points="1907.92,-331.67 1902.74,-340.91 1912.55,-336.91 1907.92,-331.67"/>
</g>
<!-- kLocalConfig.kLocalConfig -->
<g id="node18" class="node">
<title>kLocalConfig.kLocalConfig</title>
<polygon fill="none" stroke="black" points="2859.5,-45.5 2859.5,-219.5 3195.5,-219.5 3195.5,-45.5 2859.5,-45.5"/>
<text text-anchor="start" x="2981" y="-204.3" font-family="Times,serif" font-size="14.00">kLocalConfig</text>
<polyline fill="none" stroke="black" points="2859.5,-196.5 3195.5,-196.5 "/>
<text text-anchor="start" x="2938.5" y="-181.3" font-family="Times,serif" font-size="14.00">acqMode</text>
<text text-anchor="start" x="2938.5" y="-166.3" font-family="Times,serif" font-size="14.00">dataSource</text>
<text text-anchor="start" x="2938.5" y="-151.3" font-family="Times,serif" font-size="14.00">master</text>
<text text-anchor="start" x="2938.5" y="-136.3" font-family="Times,serif" font-size="14.00">path_assets : str</text>
<text text-anchor="start" x="2938.5" y="-121.3" font-family="Times,serif" font-size="14.00">path_sassari_imu : str</text>
<text text-anchor="start" x="2938.5" y="-106.3" font-family="Times,serif" font-size="14.00">path_simulated_imu : str</text>
<text text-anchor="start" x="2938.5" y="-91.3" font-family="Times,serif" font-size="14.00">slave</text>
<polyline fill="none" stroke="black" points="2859.5,-83.5 3195.5,-83.5 "/>
<text text-anchor="start" x="2867.5" y="-68.3" font-family="Times,serif" font-size="14.00">__getitem__(idx)</text>
<text text-anchor="start" x="2867.5" y="-53.3" font-family="Times,serif" font-size="14.00">__init__(dataSource, acqMode, master, slave)</text>
</g>
<!-- kLogs.kLogEfol&#45;&gt;kContracts.kIF_Log -->
<g id="edge19" class="edge">
<title>kLogs.kLogEfol&#45;&gt;kContracts.kIF_Log</title>
<path fill="none" stroke="black" d="M901.68,-482.23C910.02,-485.9 918.33,-489.45 926.5,-492.8 1010.05,-527.07 1108.92,-558.53 1175.48,-578.44"/>
<polygon fill="none" stroke="black" points="1174.89,-581.92 1185.47,-581.42 1176.89,-575.21 1174.89,-581.92"/>
</g>
<!-- kLogs.kLogEig&#45;&gt;kContracts.kIF_Log -->
<g id="edge20" class="edge">
<title>kLogs.kLogEig&#45;&gt;kContracts.kIF_Log</title>
<path fill="none" stroke="black" d="M1251.5,-454.01C1251.5,-481.4 1251.5,-514.32 1251.5,-542"/>
<polygon fill="none" stroke="black" points="1248,-542.32 1251.5,-552.32 1255,-542.32 1248,-542.32"/>
</g>
<!-- kLogs.kLogRls&#45;&gt;kContracts.kIF_Log -->
<g id="edge21" class="edge">
<title>kLogs.kLogRls&#45;&gt;kContracts.kIF_Log</title>
<path fill="none" stroke="black" d="M1404.25,-461.66C1374.6,-488.57 1340.42,-519.6 1311.92,-545.46"/>
<polygon fill="none" stroke="black" points="1309.47,-542.96 1304.42,-552.27 1314.18,-548.14 1309.47,-542.96"/>
</g>
<!-- sc_batch_sassari.kOneShotProcess -->
<g id="node22" class="node">
<title>sc_batch_sassari.kOneShotProcess</title>
<polygon fill="none" stroke="black" points="3213.5,-90.5 3213.5,-174.5 3355.5,-174.5 3355.5,-90.5 3213.5,-90.5"/>
<text text-anchor="start" x="3221.5" y="-159.3" font-family="Times,serif" font-size="14.00">kOneShotProcess</text>
<polyline fill="none" stroke="black" points="3213.5,-151.5 3355.5,-151.5 "/>
<text text-anchor="start" x="3273.5" y="-136.3" font-family="Times,serif" font-size="14.00">cfg</text>
<polyline fill="none" stroke="black" points="3213.5,-128.5 3355.5,-128.5 "/>
<text text-anchor="start" x="3233" y="-113.3" font-family="Times,serif" font-size="14.00">__init__(cfg)</text>
<text text-anchor="start" x="3233" y="-98.3" font-family="Times,serif" font-size="14.00">run(testname)</text>
</g>
<!-- kPdfUtils.kPdfUtils -->
<g id="node23" class="node">
<title>kPdfUtils.kPdfUtils</title>
<polygon fill="none" stroke="black" points="3374,-89.6 3374,-175.4 3625,-175.4 3625,-89.6 3374,-89.6"/>
<text text-anchor="start" x="3466" y="-160.2" font-family="Times,serif" font-size="14.00">kPdfUtils</text>
<polyline fill="none" stroke="black" points="3374,-152.4 3625,-152.4 "/>
<polyline fill="none" stroke="black" points="3374,-127.6 3625,-127.6 "/>
<text text-anchor="start" x="3382" y="-112.4" font-family="Times,serif" font-size="14.00">export_figures_2_pdf(filename)</text>
<text text-anchor="start" x="3382" y="-97.4" font-family="Times,serif" font-size="14.00">fix_filename_extension(filename)</text>
</g>
</g>
</svg>
